<?xml version="1.0" encoding="UTF-8" standalone="no"?>
<!DOCTYPE svg PUBLIC "-//W3C//DTD SVG 1.1//EN"
 "http://www.w3.org/Graphics/SVG/1.1/DTD/svg11.dtd">
<!-- Generated by graphviz version 14.0.1 (0)
 -->
<!-- Pages: 1 -->
<svg width="1027pt" height="796pt"
 viewBox="0.00 0.00 1027.00 796.00" xmlns="http://www.w3.org/2000/svg" xmlns:xlink="http://www.w3.org/1999/xlink">
<g id="graph0" class="graph" transform="scale(1 1) rotate(0) translate(4 791.74)">
<polygon fill="white" stroke="none" points="-4,4 -4,-791.74 1022.55,-791.74 1022.55,4 -4,4"/>
<text xml:space="preserve" text-anchor="middle" x="509.28" y="-7.95" font-family="Times,serif" font-size="14.00">Module Dependency Graph</text>
<!-- UserWebsocketModule -->
<g id="node1" class="node">
<title>UserWebsocketModule</title>
<polygon fill="#deebf7" stroke="#9ecae1" points="1018.55,-104.9 838.3,-104.9 838.3,-68.9 1018.55,-68.9 1018.55,-104.9"/>
<text xml:space="preserve" text-anchor="middle" x="928.43" y="-82.23" font-family="Times,serif" font-size="14.00">UserWebsocketModule</text>
</g>
<!-- MainModule -->
<g id="node2" class="node">
<title>MainModule</title>
<polygon fill="#deebf7" stroke="#9ecae1" points="709.4,-263.11 604.15,-263.11 604.15,-227.11 709.4,-227.11 709.4,-263.11"/>
<text xml:space="preserve" text-anchor="middle" x="656.78" y="-240.44" font-family="Times,serif" font-size="14.00">MainModule</text>
</g>
<!-- UserWebsocketModule&#45;&gt;MainModule -->
<g id="edge1" class="edge">
<title>UserWebsocketModule&#45;&gt;MainModule</title>
<path fill="none" stroke="black" d="M896.74,-105.36C847.46,-134.06 752.48,-189.37 697.96,-221.13"/>
<polygon fill="black" stroke="black" points="696.46,-217.95 689.58,-226.01 699.98,-224 696.46,-217.95"/>
</g>
<!-- UserModule -->
<g id="node3" class="node">
<title>UserModule</title>
<polygon fill="#deebf7" stroke="#9ecae1" points="586.52,-384.01 482.77,-384.01 482.77,-348.01 586.52,-348.01 586.52,-384.01"/>
<text xml:space="preserve" text-anchor="middle" x="534.64" y="-361.34" font-family="Times,serif" font-size="14.00">UserModule</text>
</g>
<!-- UserModule&#45;&gt;UserWebsocketModule -->
<g id="edge3" class="edge">
<title>UserModule&#45;&gt;UserWebsocketModule</title>
<path fill="none" stroke="black" d="M560.48,-347.7C629.05,-299.1 815.67,-166.83 893.55,-111.62"/>
<polygon fill="black" stroke="black" points="895.13,-114.8 901.26,-106.16 891.08,-109.09 895.13,-114.8"/>
</g>
<!-- UserModule&#45;&gt;MainModule -->
<g id="edge6" class="edge">
<title>UserModule&#45;&gt;MainModule</title>
<path fill="none" stroke="black" d="M553.19,-347.65C573.76,-327.29 607.09,-294.3 630.37,-271.25"/>
<polygon fill="black" stroke="black" points="632.73,-273.84 637.38,-264.32 627.81,-268.86 632.73,-273.84"/>
</g>
<!-- LogUserModule -->
<g id="node4" class="node">
<title>LogUserModule</title>
<polygon fill="#deebf7" stroke="#9ecae1" points="814.43,-540.67 684.43,-540.67 684.43,-504.67 814.43,-504.67 814.43,-540.67"/>
<text xml:space="preserve" text-anchor="middle" x="749.43" y="-518" font-family="Times,serif" font-size="14.00">LogUserModule</text>
</g>
<!-- UserModule&#45;&gt;LogUserModule -->
<g id="edge2" class="edge">
<title>UserModule&#45;&gt;LogUserModule</title>
<path fill="none" stroke="black" d="M559.7,-384.29C598.16,-412.34 671.81,-466.06 715.17,-497.68"/>
<polygon fill="black" stroke="black" points="712.84,-500.31 722.98,-503.38 716.96,-494.66 712.84,-500.31"/>
</g>
<!-- WebsocketModule -->
<g id="node5" class="node">
<title>WebsocketModule</title>
<polygon fill="#deebf7" stroke="#9ecae1" points="888.34,-309.68 742.59,-309.68 742.59,-273.68 888.34,-273.68 888.34,-309.68"/>
<text xml:space="preserve" text-anchor="middle" x="815.47" y="-287" font-family="Times,serif" font-size="14.00">WebsocketModule</text>
</g>
<!-- UserModule&#45;&gt;WebsocketModule -->
<g id="edge4" class="edge">
<title>UserModule&#45;&gt;WebsocketModule</title>
<path fill="none" stroke="black" d="M586.81,-352.2C628.38,-341.2 687.31,-325.6 734.93,-313"/>
<polygon fill="black" stroke="black" points="735.6,-316.44 744.37,-310.5 733.81,-309.67 735.6,-316.44"/>
</g>
<!-- CodeModule -->
<g id="node6" class="node">
<title>CodeModule</title>
<polygon fill="#deebf7" stroke="#9ecae1" points="557.13,-568.98 451.88,-568.98 451.88,-532.98 557.13,-532.98 557.13,-568.98"/>
<text xml:space="preserve" text-anchor="middle" x="504.5" y="-546.3" font-family="Times,serif" font-size="14.00">CodeModule</text>
</g>
<!-- UserModule&#45;&gt;CodeModule -->
<g id="edge5" class="edge">
<title>UserModule&#45;&gt;CodeModule</title>
<path fill="none" stroke="black" d="M531.64,-384.42C526.42,-416.48 515.61,-482.82 509.32,-521.4"/>
<polygon fill="black" stroke="black" points="505.89,-520.71 507.74,-531.15 512.8,-521.84 505.89,-520.71"/>
</g>
<!-- AuthModule -->
<g id="node7" class="node">
<title>AuthModule</title>
<polygon fill="#deebf7" stroke="#9ecae1" points="378.63,-293.8 275.63,-293.8 275.63,-257.8 378.63,-257.8 378.63,-293.8"/>
<text xml:space="preserve" text-anchor="middle" x="327.13" y="-271.12" font-family="Times,serif" font-size="14.00">AuthModule</text>
</g>
<!-- UserModule&#45;&gt;AuthModule -->
<g id="edge7" class="edge">
<title>UserModule&#45;&gt;AuthModule</title>
<path fill="none" stroke="black" d="M492.15,-347.54C459.7,-333.43 414.79,-313.91 380.01,-298.79"/>
<polygon fill="black" stroke="black" points="381.52,-295.63 370.96,-294.85 378.73,-302.05 381.52,-295.63"/>
</g>
<!-- LogUserModule&#45;&gt;MainModule -->
<g id="edge41" class="edge">
<title>LogUserModule&#45;&gt;MainModule</title>
<path fill="none" stroke="black" d="M743.35,-504.46C727.65,-457.41 685.61,-331.49 666.49,-274.2"/>
<polygon fill="black" stroke="black" points="669.85,-273.2 663.36,-264.83 663.21,-275.42 669.85,-273.2"/>
</g>
<!-- WebsocketModule&#45;&gt;UserWebsocketModule -->
<g id="edge28" class="edge">
<title>WebsocketModule&#45;&gt;UserWebsocketModule</title>
<path fill="none" stroke="black" d="M825.49,-273.5C845.21,-237.77 889.14,-158.13 912.73,-115.36"/>
<polygon fill="black" stroke="black" points="915.77,-117.1 917.53,-106.65 909.64,-113.72 915.77,-117.1"/>
</g>
<!-- WebsocketModule&#45;&gt;MainModule -->
<g id="edge29" class="edge">
<title>WebsocketModule&#45;&gt;MainModule</title>
<path fill="none" stroke="black" d="M752.75,-273.27C742.21,-270.18 731.25,-266.96 720.68,-263.86"/>
<polygon fill="black" stroke="black" points="721.86,-260.56 711.28,-261.1 719.89,-267.28 721.86,-260.56"/>
</g>
<!-- CodeModule&#45;&gt;MainModule -->
<g id="edge33" class="edge">
<title>CodeModule&#45;&gt;MainModule</title>
<path fill="none" stroke="black" d="M513.57,-532.76C539.12,-481.44 611.83,-335.39 642.67,-273.44"/>
<polygon fill="black" stroke="black" points="645.76,-275.1 647.08,-264.59 639.49,-271.98 645.76,-275.1"/>
</g>
<!-- CodeModule&#45;&gt;AuthModule -->
<g id="edge32" class="edge">
<title>CodeModule&#45;&gt;AuthModule</title>
<path fill="none" stroke="black" d="M492.59,-532.49C462.17,-485.3 381.48,-360.12 345.22,-303.87"/>
<polygon fill="black" stroke="black" points="348.17,-301.98 339.81,-295.47 342.29,-305.77 348.17,-301.98"/>
</g>
<!-- AuthModule&#45;&gt;MainModule -->
<g id="edge42" class="edge">
<title>AuthModule&#45;&gt;MainModule</title>
<path fill="none" stroke="black" d="M379,-270.97C436.78,-265.59 530.24,-256.89 592.58,-251.09"/>
<polygon fill="black" stroke="black" points="592.71,-254.59 602.34,-250.18 592.06,-247.62 592.71,-254.59"/>
</g>
<!-- GinModule -->
<g id="node8" class="node">
<title>GinModule</title>
<polygon fill="#deebf7" stroke="#9ecae1" points="557.6,-218.64 463.6,-218.64 463.6,-182.64 557.6,-182.64 557.6,-218.64"/>
<text xml:space="preserve" text-anchor="middle" x="510.6" y="-195.96" font-family="Times,serif" font-size="14.00">GinModule</text>
</g>
<!-- GinModule&#45;&gt;MainModule -->
<g id="edge10" class="edge">
<title>GinModule&#45;&gt;MainModule</title>
<path fill="none" stroke="black" d="M558.06,-215.08C569.23,-218.48 581.31,-222.15 593.07,-225.73"/>
<polygon fill="black" stroke="black" points="591.7,-228.97 602.29,-228.53 593.74,-222.27 591.7,-228.97"/>
</g>
<!-- GinModule&#45;&gt;UserModule -->
<g id="edge13" class="edge">
<title>GinModule&#45;&gt;UserModule</title>
<path fill="none" stroke="black" d="M513.27,-218.97C517.4,-247.4 525.4,-302.41 530.35,-336.5"/>
<polygon fill="black" stroke="black" points="526.85,-336.71 531.75,-346.1 533.77,-335.7 526.85,-336.71"/>
</g>
<!-- GinModule&#45;&gt;LogUserModule -->
<g id="edge12" class="edge">
<title>GinModule&#45;&gt;LogUserModule</title>
<path fill="none" stroke="black" d="M524.13,-218.87C564.02,-272.66 681.37,-430.9 729,-495.12"/>
<polygon fill="black" stroke="black" points="726.09,-497.07 734.86,-503.02 731.71,-492.9 726.09,-497.07"/>
</g>
<!-- GinModule&#45;&gt;WebsocketModule -->
<g id="edge8" class="edge">
<title>GinModule&#45;&gt;WebsocketModule</title>
<path fill="none" stroke="black" d="M557.9,-214.76C607.32,-229.52 685.47,-252.86 742.74,-269.96"/>
<polygon fill="black" stroke="black" points="741.51,-273.24 752.09,-272.75 743.51,-266.54 741.51,-273.24"/>
</g>
<!-- GinModule&#45;&gt;CodeModule -->
<g id="edge9" class="edge">
<title>GinModule&#45;&gt;CodeModule</title>
<path fill="none" stroke="black" d="M510.28,-218.98C509.29,-276.09 506.24,-451.1 505.02,-521.34"/>
<polygon fill="black" stroke="black" points="501.52,-521.24 504.85,-531.3 508.52,-521.36 501.52,-521.24"/>
</g>
<!-- GinModule&#45;&gt;AuthModule -->
<g id="edge11" class="edge">
<title>GinModule&#45;&gt;AuthModule</title>
<path fill="none" stroke="black" d="M465.72,-219.02C440.62,-229.31 409.12,-242.21 382.5,-253.11"/>
<polygon fill="black" stroke="black" points="381.51,-249.74 373.59,-256.77 384.17,-256.21 381.51,-249.74"/>
</g>
<!-- DotenvModule -->
<g id="node9" class="node">
<title>DotenvModule</title>
<polygon fill="#deebf7" stroke="#9ecae1" points="120.25,-262.74 0,-262.74 0,-226.74 120.25,-226.74 120.25,-262.74"/>
<text xml:space="preserve" text-anchor="middle" x="60.13" y="-240.07" font-family="Times,serif" font-size="14.00">DotenvModule</text>
</g>
<!-- DotenvModule&#45;&gt;AuthModule -->
<g id="edge19" class="edge">
<title>DotenvModule&#45;&gt;AuthModule</title>
<path fill="none" stroke="black" d="M120.71,-251.79C163.51,-256.77 220.72,-263.42 264.06,-268.46"/>
<polygon fill="black" stroke="black" points="263.49,-271.92 273.83,-269.6 264.3,-264.97 263.49,-271.92"/>
</g>
<!-- DotenvModule&#45;&gt;GinModule -->
<g id="edge14" class="edge">
<title>DotenvModule&#45;&gt;GinModule</title>
<path fill="none" stroke="black" d="M120.41,-238.84C207.17,-230.35 366.2,-214.78 452.01,-206.38"/>
<polygon fill="black" stroke="black" points="452.24,-209.87 461.85,-205.41 451.56,-202.9 452.24,-209.87"/>
</g>
<!-- DatabaseModule -->
<g id="node10" class="node">
<title>DatabaseModule</title>
<polygon fill="#deebf7" stroke="#9ecae1" points="320.24,-371.4 184.24,-371.4 184.24,-335.4 320.24,-335.4 320.24,-371.4"/>
<text xml:space="preserve" text-anchor="middle" x="252.24" y="-348.73" font-family="Times,serif" font-size="14.00">DatabaseModule</text>
</g>
<!-- DotenvModule&#45;&gt;DatabaseModule -->
<g id="edge15" class="edge">
<title>DotenvModule&#45;&gt;DatabaseModule</title>
<path fill="none" stroke="black" d="M92.71,-263.18C124.97,-281.42 174.49,-309.43 209.8,-329.4"/>
<polygon fill="black" stroke="black" points="208.07,-332.44 218.5,-334.32 211.51,-326.35 208.07,-332.44"/>
</g>
<!-- TokenModule -->
<g id="node11" class="node">
<title>TokenModule</title>
<polygon fill="#deebf7" stroke="#9ecae1" points="252.13,-61.25 140.88,-61.25 140.88,-25.25 252.13,-25.25 252.13,-61.25"/>
<text xml:space="preserve" text-anchor="middle" x="196.5" y="-38.58" font-family="Times,serif" font-size="14.00">TokenModule</text>
</g>
<!-- DotenvModule&#45;&gt;TokenModule -->
<g id="edge16" class="edge">
<title>DotenvModule&#45;&gt;TokenModule</title>
<path fill="none" stroke="black" d="M72.47,-226.51C96.45,-191.08 149.44,-112.78 177.78,-70.91"/>
<polygon fill="black" stroke="black" points="180.53,-73.09 183.24,-62.84 174.74,-69.16 180.53,-73.09"/>
</g>
<!-- MediaModule -->
<g id="node12" class="node">
<title>MediaModule</title>
<polygon fill="#deebf7" stroke="#9ecae1" points="115.69,-489.15 2.19,-489.15 2.19,-453.15 115.69,-453.15 115.69,-489.15"/>
<text xml:space="preserve" text-anchor="middle" x="58.94" y="-466.48" font-family="Times,serif" font-size="14.00">MediaModule</text>
</g>
<!-- DotenvModule&#45;&gt;MediaModule -->
<g id="edge17" class="edge">
<title>DotenvModule&#45;&gt;MediaModule</title>
<path fill="none" stroke="black" d="M60.03,-262.89C59.83,-301.89 59.35,-394 59.1,-441.58"/>
<polygon fill="black" stroke="black" points="55.6,-441.39 59.05,-451.41 62.6,-441.43 55.6,-441.39"/>
</g>
<!-- EmailModule -->
<g id="node13" class="node">
<title>EmailModule</title>
<polygon fill="#deebf7" stroke="#9ecae1" points="199.26,-641.82 88.76,-641.82 88.76,-605.82 199.26,-605.82 199.26,-641.82"/>
<text xml:space="preserve" text-anchor="middle" x="144.01" y="-619.15" font-family="Times,serif" font-size="14.00">EmailModule</text>
</g>
<!-- DotenvModule&#45;&gt;EmailModule -->
<g id="edge18" class="edge">
<title>DotenvModule&#45;&gt;EmailModule</title>
<path fill="none" stroke="black" d="M64.17,-263.03C77.65,-323.95 121.13,-520.41 137.6,-594.86"/>
<polygon fill="black" stroke="black" points="134.1,-595.24 139.68,-604.24 140.93,-593.72 134.1,-595.24"/>
</g>
<!-- DatabaseModule&#45;&gt;MainModule -->
<g id="edge25" class="edge">
<title>DatabaseModule&#45;&gt;MainModule</title>
<path fill="none" stroke="black" d="M320.41,-335.16C396.44,-314.8 518.49,-282.13 592.79,-262.24"/>
<polygon fill="black" stroke="black" points="593.62,-265.64 602.38,-259.67 591.81,-258.88 593.62,-265.64"/>
</g>
<!-- DatabaseModule&#45;&gt;UserModule -->
<g id="edge27" class="edge">
<title>DatabaseModule&#45;&gt;UserModule</title>
<path fill="none" stroke="black" d="M320.6,-356.46C366.4,-358.5 426.28,-361.18 471.06,-363.17"/>
<polygon fill="black" stroke="black" points="470.73,-366.66 480.88,-363.61 471.04,-359.67 470.73,-366.66"/>
</g>
<!-- DatabaseModule&#45;&gt;CodeModule -->
<g id="edge24" class="edge">
<title>DatabaseModule&#45;&gt;CodeModule</title>
<path fill="none" stroke="black" d="M275.52,-371.64C320.74,-407.05 420.54,-485.21 472.16,-525.64"/>
<polygon fill="black" stroke="black" points="469.69,-528.16 479.72,-531.57 474.01,-522.64 469.69,-528.16"/>
</g>
<!-- DatabaseModule&#45;&gt;AuthModule -->
<g id="edge26" class="edge">
<title>DatabaseModule&#45;&gt;AuthModule</title>
<path fill="none" stroke="black" d="M269.99,-335.01C279.41,-325.25 291.15,-313.08 301.54,-302.32"/>
<polygon fill="black" stroke="black" points="304.03,-304.77 308.46,-295.15 299,-299.91 304.03,-304.77"/>
</g>
<!-- DatabaseModule&#45;&gt;TokenModule -->
<g id="edge22" class="edge">
<title>DatabaseModule&#45;&gt;TokenModule</title>
<path fill="none" stroke="black" d="M248.92,-334.93C239.61,-283.11 213.17,-136.02 201.81,-72.76"/>
<polygon fill="black" stroke="black" points="205.29,-72.34 200.07,-63.12 198.4,-73.58 205.29,-72.34"/>
</g>
<!-- DatabaseModule&#45;&gt;MediaModule -->
<g id="edge23" class="edge">
<title>DatabaseModule&#45;&gt;MediaModule</title>
<path fill="none" stroke="black" d="M222.04,-371.8C188.8,-392.05 135.24,-424.68 98.63,-446.98"/>
<polygon fill="black" stroke="black" points="97.26,-443.71 90.54,-451.9 100.91,-449.69 97.26,-443.71"/>
</g>
<!-- LogModule -->
<g id="node14" class="node">
<title>LogModule</title>
<polygon fill="#deebf7" stroke="#9ecae1" points="439.7,-555.67 344.2,-555.67 344.2,-519.67 439.7,-519.67 439.7,-555.67"/>
<text xml:space="preserve" text-anchor="middle" x="391.95" y="-533" font-family="Times,serif" font-size="14.00">LogModule</text>
</g>
<!-- DatabaseModule&#45;&gt;LogModule -->
<g id="edge21" class="edge">
<title>DatabaseModule&#45;&gt;LogModule</title>
<path fill="none" stroke="black" d="M266.15,-371.75C290.83,-404.31 342.43,-472.36 371.28,-510.42"/>
<polygon fill="black" stroke="black" points="368.35,-512.35 377.18,-518.2 373.93,-508.12 368.35,-512.35"/>
</g>
<!-- TokenModule&#45;&gt;UserModule -->
<g id="edge46" class="edge">
<title>TokenModule&#45;&gt;UserModule</title>
<path fill="none" stroke="black" d="M215.65,-61.53C272.59,-115.88 441.02,-276.64 507.35,-339.96"/>
<polygon fill="black" stroke="black" points="504.54,-342.12 514.19,-346.49 509.37,-337.05 504.54,-342.12"/>
</g>
<!-- TokenModule&#45;&gt;AuthModule -->
<g id="edge47" class="edge">
<title>TokenModule&#45;&gt;AuthModule</title>
<path fill="none" stroke="black" d="M206.75,-61.5C229.45,-101.9 284.07,-199.13 311.23,-247.5"/>
<polygon fill="black" stroke="black" points="308.06,-248.99 316.01,-255.99 314.16,-245.56 308.06,-248.99"/>
</g>
<!-- MediaModule&#45;&gt;UserModule -->
<g id="edge20" class="edge">
<title>MediaModule&#45;&gt;UserModule</title>
<path fill="none" stroke="black" d="M115.85,-458.58C205.31,-438.8 378.23,-400.58 471.44,-379.98"/>
<polygon fill="black" stroke="black" points="471.91,-383.46 480.92,-377.89 470.4,-376.63 471.91,-383.46"/>
</g>
<!-- EmailModule&#45;&gt;CodeModule -->
<g id="edge30" class="edge">
<title>EmailModule&#45;&gt;CodeModule</title>
<path fill="none" stroke="black" d="M199.55,-612.6C264.56,-599.46 372.03,-577.75 440.49,-563.91"/>
<polygon fill="black" stroke="black" points="440.96,-567.39 450.06,-561.98 439.57,-560.53 440.96,-567.39"/>
</g>
<!-- EmailModule&#45;&gt;AuthModule -->
<g id="edge31" class="edge">
<title>EmailModule&#45;&gt;AuthModule</title>
<path fill="none" stroke="black" d="M153.6,-605.6C183.56,-548.65 275.63,-373.67 312.07,-304.43"/>
<polygon fill="black" stroke="black" points="315.15,-306.08 316.71,-295.6 308.96,-302.82 315.15,-306.08"/>
</g>
<!-- LogModule&#45;&gt;UserModule -->
<g id="edge38" class="edge">
<title>LogModule&#45;&gt;UserModule</title>
<path fill="none" stroke="black" d="M407.22,-519.3C432.36,-489.05 482.62,-428.6 511.94,-393.33"/>
<polygon fill="black" stroke="black" points="514.6,-395.6 518.3,-385.68 509.22,-391.13 514.6,-395.6"/>
</g>
<!-- LogModule&#45;&gt;LogUserModule -->
<g id="edge37" class="edge">
<title>LogModule&#45;&gt;LogUserModule</title>
<path fill="none" stroke="black" d="M440.16,-535.65C499.83,-533.15 602.16,-528.85 672.67,-525.89"/>
<polygon fill="black" stroke="black" points="672.78,-529.39 682.63,-525.48 672.49,-522.4 672.78,-529.39"/>
</g>
<!-- LogModule&#45;&gt;WebsocketModule -->
<g id="edge40" class="edge">
<title>LogModule&#45;&gt;WebsocketModule</title>
<path fill="none" stroke="black" d="M423.78,-519.18C499.39,-475.27 689.72,-364.72 774.1,-315.71"/>
<polygon fill="black" stroke="black" points="775.65,-318.85 782.54,-310.8 772.13,-312.8 775.65,-318.85"/>
</g>
<!-- LogModule&#45;&gt;CodeModule -->
<g id="edge34" class="edge">
<title>LogModule&#45;&gt;CodeModule</title>
<path fill="none" stroke="black" d="M440.01,-543.35C440.13,-543.37 440.25,-543.38 440.37,-543.4"/>
<polygon fill="black" stroke="black" points="439.72,-546.84 450.06,-544.54 440.54,-539.89 439.72,-546.84"/>
</g>
<!-- LogModule&#45;&gt;AuthModule -->
<g id="edge36" class="edge">
<title>LogModule&#45;&gt;AuthModule</title>
<path fill="none" stroke="black" d="M387.39,-519.26C376.3,-474.46 347.85,-359.5 334.39,-305.13"/>
<polygon fill="black" stroke="black" points="337.85,-304.53 332.05,-295.66 331.05,-306.21 337.85,-304.53"/>
</g>
<!-- LogModule&#45;&gt;MediaModule -->
<g id="edge39" class="edge">
<title>LogModule&#45;&gt;MediaModule</title>
<path fill="none" stroke="black" d="M343.88,-528.07C286.96,-516.7 191.75,-497.68 127.2,-484.79"/>
<polygon fill="black" stroke="black" points="127.9,-481.36 117.41,-482.83 126.53,-488.22 127.9,-481.36"/>
</g>
<!-- LogModule&#45;&gt;EmailModule -->
<g id="edge35" class="edge">
<title>LogModule&#45;&gt;EmailModule</title>
<path fill="none" stroke="black" d="M343.85,-554.39C305.11,-567.85 250.32,-586.88 207.91,-601.62"/>
<polygon fill="black" stroke="black" points="206.86,-598.28 198.56,-604.87 209.15,-604.89 206.86,-598.28"/>
</g>
<!-- QueryModule -->
<g id="node15" class="node">
<title>QueryModule</title>
<polygon fill="#deebf7" stroke="#9ecae1" points="820.77,-787.74 708.02,-787.74 708.02,-751.74 820.77,-751.74 820.77,-787.74"/>
<text xml:space="preserve" text-anchor="middle" x="764.4" y="-765.06" font-family="Times,serif" font-size="14.00">QueryModule</text>
</g>
<!-- QueryModule&#45;&gt;UserModule -->
<g id="edge45" class="edge">
<title>QueryModule&#45;&gt;UserModule</title>
<path fill="none" stroke="black" d="M753.93,-751.34C717.29,-686.96 594.67,-471.49 550.59,-394.04"/>
<polygon fill="black" stroke="black" points="553.65,-392.33 545.66,-385.37 547.57,-395.79 553.65,-392.33"/>
</g>
<!-- QueryModule&#45;&gt;LogUserModule -->
<g id="edge44" class="edge">
<title>QueryModule&#45;&gt;LogUserModule</title>
<path fill="none" stroke="black" d="M763.3,-751.57C760.73,-709.27 754.35,-603.89 751.22,-552.2"/>
<polygon fill="black" stroke="black" points="754.73,-552.15 750.63,-542.38 747.74,-552.57 754.73,-552.15"/>
</g>
<!-- QueryModule&#45;&gt;CodeModule -->
<g id="edge43" class="edge">
<title>QueryModule&#45;&gt;CodeModule</title>
<path fill="none" stroke="black" d="M742.68,-751.46C696.44,-712.53 588.11,-621.35 534.98,-576.63"/>
<polygon fill="black" stroke="black" points="537.4,-574.09 527.49,-570.33 532.89,-579.44 537.4,-574.09"/>
</g>
</g>
</svg>
